<?xml version="1.0" encoding="utf-8"?>
<!DOCTYPE svg PUBLIC "-//W3C//DTD SVG 1.0//EN" "http://www.w3.org/TR/2001/REC-SVG-20010904/DTD/svg10.dtd">
<svg version="1.0" xmlns="http://www.w3.org/2000/svg" width="480px" height="507px" viewBox="0 0 480 507" preserveAspectRatio="xMidYMid meet">
 <g fill="#54ba6a">
  <path d="M229.15 456.45 c-7.40 -0.15 -14.70 -0.60 -18.15 -1.10 -3.15 -0.45 -7.65 -1.10 -10 -1.35 -2.35 -0.30 -5.80 -1 -7.75 -1.50 -1.90 -0.50 -7.10 -1.85 -11.50 -3 -4.40 -1.15 -9 -2.45 -10.25 -3 -1.25 -0.50 -4.50 -1.75 -7.25 -2.80 -5.80 -2.15 -15.50 -6.05 -16.70 -6.70 -0.45 -0.25 -2.15 -1.10 -3.80 -1.90 -3.10 -1.55 -11.05 -5.75 -15.65 -8.35 -6.55 -3.70 -18.20 -11.70 -23.70 -16.35 -11.40 -9.65 -21.70 -19.75 -28.50 -27.90 -4.25 -5.15 -6.15 -7.60 -13.65 -17.50 -3.90 -5.15 -10.10 -16.05 -16.50 -29 -4.35 -8.80 -8.65 -21.10 -13.25 -37.75 -2.65 -9.50 -4.70 -22.80 -4.55 -29.60 0.10 -3.95 -0.05 -5.15 -0.55 -5.15 -0.45 0 -0.50 -0.15 -0.10 -0.40 1 -0.65 1.30 -2.45 0.45 -3.25 -0.50 -0.50 -0.55 -0.85 -0.20 -0.95 0.90 -0.30 0.75 -14.40 -0.10 -14.95 -0.55 -0.35 -0.50 -0.45 0.15 -0.45 0.70 0 0.85 -0.35 0.70 -1.55 -0.10 -0.85 -0.50 -1.75 -0.85 -2 -0.55 -0.35 -0.60 -0.55 -0.05 -0.85 0.70 -0.50 0.75 -0.85 0.65 -10.60 -0.05 -4.15 0.20 -8.40 0.70 -11 0.40 -2.35 0.90 -5.10 1.05 -6.10 0.20 -1.05 0.50 -1.90 0.75 -1.90 0.20 0 0.35 -1.05 0.35 -2.35 -0.05 -2.35 1.80 -9.65 4.45 -17.90 2.10 -6.50 4.75 -13.25 5.20 -13.25 0.20 0 0.35 -0.45 0.30 -0.95 -0.05 -1.20 2.15 -6.05 2.75 -6.05 0.25 0 0.35 -0.20 0.20 -0.45 -0.30 -0.50 0.30 -2.15 3.20 -8.35 1.10 -2.30 2.25 -4.20 2.55 -4.20 0.25 0 0.40 -0.20 0.20 -0.45 -0.15 -0.25 0 -0.75 0.35 -1.15 0.35 -0.35 0.70 -1 0.80 -1.40 0.10 -0.40 0.55 -1.30 1 -2 0.40 -0.70 0.75 -1.35 0.75 -1.50 -0.15 -0.50 3 -6 3.40 -6 0.20 0 0.65 -0.80 0.95 -1.75 0.30 -0.95 0.80 -1.75 1.05 -1.75 0.25 0 0.85 -0.85 1.35 -1.85 0.45 -1 1.35 -2.40 2 -3.05 1 -1.15 1.20 -1.50 1.05 -2.45 0 -0.15 0.30 -0.50 0.75 -0.75 0.45 -0.25 0.80 -0.75 0.80 -1.10 0 -0.40 0.35 -0.80 0.75 -1 0.40 -0.15 0.75 -0.60 0.75 -1.05 0 -0.40 0.25 -0.75 0.50 -0.75 0.30 0 0.70 -0.40 0.85 -0.85 0.20 -0.50 0.60 -1.15 0.85 -1.45 0.30 -0.35 1.45 -1.65 2.55 -3 3.90 -4.65 5.50 -6.45 6.15 -6.85 0.30 -0.20 0.60 -0.60 0.60 -0.85 0 -0.40 1.05 -1.60 6.95 -7.75 0.80 -0.80 3.20 -3.05 5.30 -5 2.15 -1.90 5.50 -4.95 7.45 -6.75 7.20 -6.55 8.65 -7.80 11.35 -9.60 1.50 -1.05 3.25 -2.40 3.95 -3.05 1.75 -1.60 13.75 -9.75 16.75 -11.35 1.40 -0.75 3.95 -2.20 5.70 -3.20 4.10 -2.35 14.45 -7.30 18.30 -8.80 1.65 -0.60 5.15 -2 7.75 -3.10 4.50 -1.90 14.30 -5.20 18.75 -6.35 12.40 -3.20 15.80 -3.75 35 -5.80 11.55 -1.25 31.20 -1 44.25 0.50 13.50 1.55 14.50 1.75 24.25 4.20 9.35 2.35 21.35 6.35 30.25 10.05 3.45 1.45 6.95 2.90 7.75 3.20 2.60 1 15.80 8.15 20.75 11.30 2.60 1.65 5.55 3.45 6.50 3.95 0.95 0.55 2.90 1.90 4.25 3 1.40 1.10 4.35 3.15 6.60 4.55 2.25 1.45 4.20 2.90 4.35 3.30 0.30 0.75 -0.50 3.25 -1.15 3.70 -0.20 0.15 -0.85 1.10 -1.50 2.15 -1.35 2.15 -3.65 3.55 -5.30 3.15 -0.65 -0.15 -2.05 -1.05 -3.20 -2 -1.10 -0.90 -5.65 -4 -10.15 -6.80 -4.50 -2.80 -8.80 -5.55 -9.55 -6.10 -1.20 -0.80 -6.40 -3.65 -12.85 -6.95 -2.45 -1.25 -8.45 -3.95 -8.80 -3.95 -0.15 0 -1.45 -0.55 -2.85 -1.15 -4.90 -2.25 -17.75 -6.20 -29.10 -9.05 -7.80 -1.90 -8.30 -2 -15.75 -2.80 -2.90 -0.30 -7.40 -0.90 -10 -1.35 -7.65 -1.35 -29.20 -1.20 -40.25 0.25 -32.45 4.40 -53.20 11.05 -75.25 24.10 -1.50 0.90 -3.75 2.20 -5 2.90 -2.10 1.15 -3.10 1.85 -7.25 5 -0.80 0.60 -3.20 2.35 -5.30 3.85 -7.30 5.25 -25.15 21.40 -30.75 27.80 -7.25 8.25 -14.20 17 -14.20 17.90 0 0.30 -0.15 0.55 -0.40 0.55 -0.20 0 -1.15 1.25 -2.05 2.80 -0.95 1.55 -2.10 3.25 -2.60 3.75 -0.55 0.55 -0.95 1.30 -0.95 1.75 0 0.45 -0.45 1.15 -0.95 1.60 -0.55 0.50 -1.55 1.85 -2.15 3.10 -0.65 1.25 -1.55 2.80 -2 3.50 -0.45 0.70 -0.90 1.60 -1 2 -0.10 0.40 -0.30 0.85 -0.45 1 -0.70 0.65 -5.90 11.40 -5.60 11.70 0.15 0.15 0.05 0.30 -0.25 0.30 -0.35 0 -0.60 0.35 -0.60 0.75 0 0.45 -0.35 1.30 -0.75 1.95 -1.20 1.80 -4.50 10.65 -6.20 16.50 -2.55 8.75 -5.75 24.70 -8.10 40.30 -1.05 6.95 -0.45 41.50 0.80 43.45 0.10 0.20 0.55 3.05 1 6.35 0.95 7.05 3.15 17 5.30 23.95 2.65 8.60 5.35 16.55 6.40 18.80 0.55 1.20 1.35 3.10 1.85 4.20 1.35 3.25 6.75 13.90 7.70 15.25 0.45 0.70 1 1.70 1.20 2.20 0.75 2.20 11.10 17.80 14.65 22.25 9.70 12.05 28.75 30.60 37.65 36.60 0.95 0.65 3.65 2.70 6 4.50 2.35 1.85 6.50 4.70 9.25 6.40 2.75 1.70 5.35 3.30 5.75 3.55 5.60 3.50 18.90 9.75 27.70 13 12 4.40 19.35 6.50 30.55 8.55 11.65 2.10 10.55 2 26.75 3 8.20 0.55 29.10 0.35 33 -0.25 0.70 -0.10 3.05 -0.35 5.20 -0.55 2.20 -0.15 6.50 -0.85 9.50 -1.50 3.05 -0.60 6.65 -1.30 8.05 -1.50 5.40 -0.75 21.65 -5.90 30.10 -9.55 2.80 -1.20 5.30 -2.20 5.55 -2.20 0.50 0 7 -3.05 9.35 -4.35 0.85 -0.45 2.95 -1.60 4.75 -2.55 3.90 -2 5.60 -2.95 8.25 -4.55 1.10 -0.70 2.75 -1.65 3.70 -2.15 0.90 -0.55 1.90 -1.15 2.25 -1.45 0.30 -0.25 1.55 -1.15 2.80 -2 1.25 -0.80 3.75 -2.50 5.65 -3.75 1.85 -1.30 3.65 -2.65 4 -3.10 0.30 -0.50 1.40 -1.40 2.35 -2.10 2.90 -2 15.95 -14.05 20.65 -19.05 2.45 -2.60 5.10 -5.40 5.90 -6.25 0.80 -0.85 1.45 -1.75 1.45 -1.95 0 -0.20 0.40 -0.75 0.95 -1.20 1 -0.90 3.70 -4.05 5.30 -6.25 0.55 -0.75 1.40 -1.85 1.90 -2.40 0.45 -0.60 0.85 -1.25 0.85 -1.50 0 -0.45 0.50 -1.15 2.05 -2.85 0.40 -0.50 0.90 -1.25 1.10 -1.70 0.15 -0.45 0.55 -0.85 0.85 -0.85 0.30 0 0.45 -0.20 0.25 -0.45 -0.15 -0.25 0.15 -0.80 0.60 -1.15 0.50 -0.35 0.95 -1 1.05 -1.40 0.10 -0.40 0.40 -0.85 0.65 -0.90 0.25 -0.10 0.35 -0.35 0.20 -0.60 -0.10 -0.20 0.25 -0.95 0.90 -1.60 0.60 -0.70 1.15 -1.55 1.25 -1.95 0.30 -1.10 3.30 -5.95 3.75 -5.95 0.20 0 0.30 -0.20 0.15 -0.45 -0.35 -0.55 2.10 -5.05 2.75 -5.05 0.30 0 0.45 -0.30 0.35 -0.65 -0.20 -0.85 2.15 -5.85 2.70 -5.85 0.25 0 0.30 -0.20 0.15 -0.50 -0.15 -0.25 0.15 -1.30 0.65 -2.35 0.55 -1.05 1.95 -4.35 3.15 -7.40 1.20 -3 2.35 -5.55 2.55 -5.65 0.20 -0.10 0.20 -0.50 0.10 -0.85 -0.30 -0.80 1.70 -7.25 2.20 -7.25 0.20 0 0.40 -0.70 0.40 -1.55 0.05 -0.85 0.35 -1.75 0.70 -1.95 0.35 -0.20 0.50 -0.65 0.30 -0.95 -0.40 -0.65 2.15 -10.65 2.85 -11.10 0.25 -0.20 0.30 -0.60 0.10 -0.90 -0.15 -0.35 0.25 -3 0.95 -5.95 1.75 -7.40 2.45 -17.90 2.45 -36.85 0.05 -17.75 -0.45 -23.65 -2.70 -34.35 -3.65 -17.35 -6.75 -28.50 -10.30 -37.05 -2.70 -6.55 -2.65 -6.70 3.35 -9.85 l4.10 -2.10 1.20 1.15 c0.60 0.65 2.35 4.25 3.85 7.95 7.05 17.70 11.25 33.10 12.60 46.30 0.45 4.10 1.15 10.25 1.55 13.70 1.15 9.25 1.15 31.85 0 37.50 -0.45 2.35 -1.15 6.85 -1.60 10 -0.40 3.15 -1.20 7.45 -1.70 9.50 -0.50 2.05 -1.20 5.20 -1.50 7 -1 5.85 -5.35 20.65 -7.10 24.05 -0.50 1 -0.90 2.10 -0.90 2.45 0 1.40 -16.90 34.75 -18.65 36.75 -0.25 0.30 -0.90 1.35 -1.50 2.35 -3 5 -9.25 13.10 -17 21.90 -10.80 12.25 -15.10 16.50 -24.40 24.05 -8.15 6.65 -9.40 7.60 -10.90 8.40 -0.70 0.40 -2.35 1.45 -3.65 2.35 -1.30 0.95 -2.55 1.70 -2.70 1.70 -0.20 0 -2.15 1.20 -4.40 2.70 -2.20 1.45 -4.60 2.95 -5.30 3.30 -0.70 0.35 -1.35 0.80 -1.50 0.95 -0.15 0.15 -1.80 1.10 -3.75 2.10 -5.30 2.75 -6.95 3.65 -7.25 4 -0.35 0.40 -10.55 5.05 -15.25 6.95 -7.60 3.10 -8.50 3.40 -13.50 4.90 -2.75 0.85 -7.25 2.20 -10 3 -2.75 0.85 -6.90 1.80 -9.25 2.10 -2.35 0.30 -5.80 1 -7.75 1.50 -1.90 0.55 -6.40 1.20 -10 1.50 -3.55 0.35 -7.40 0.80 -8.50 1.10 -3.35 0.85 -13.50 1.15 -26.60 0.85z"/>
  <path d="M225.80 394.45 c-9.10 -0.60 -28.55 -4.60 -35.70 -7.25 -1.70 -0.65 -4.15 -1.45 -5.35 -1.70 -1.25 -0.30 -5 -1.80 -8.35 -3.40 -3.40 -1.65 -7 -3.30 -8.05 -3.75 -2.60 -1.15 -3.15 -2.60 -2 -5.25 0.50 -1.15 1.05 -2.10 1.25 -2.10 0.25 0 0.40 -0.35 0.40 -0.75 0 -0.40 0.20 -0.75 0.45 -0.75 0.25 0 0.60 -0.55 0.75 -1.25 0.45 -1.80 2.10 -3.25 3.70 -3.25 0.75 0 2.70 0.80 4.35 1.80 6.15 3.75 14.85 7.25 23.50 9.45 2.50 0.60 5.75 1.45 7.25 1.90 2.95 0.85 18.15 2.70 26 3.20 2.60 0.15 6.80 0 9.25 -0.30 2.50 -0.30 6.20 -0.75 8.25 -1 2.05 -0.25 5.55 -0.60 7.75 -0.75 2.20 -0.15 5.15 -0.60 6.50 -1 1.40 -0.40 4.55 -1.30 7 -2 2.50 -0.70 6.85 -2.20 9.75 -3.30 2.90 -1.15 6.25 -2.45 7.50 -2.90 1.25 -0.50 2.60 -1.10 3 -1.35 0.40 -0.30 1.75 -0.95 3 -1.50 1.25 -0.60 3 -1.50 3.95 -2 6.20 -3.60 10.85 -6.50 11.45 -7.05 0.35 -0.40 0.85 -0.70 1.10 -0.70 0.45 0 9.35 -6.70 10.55 -7.95 0.40 -0.45 1.75 -1.60 2.95 -2.55 2.75 -2.15 8.50 -7.80 8.50 -8.35 0 -0.20 0.85 -1.25 1.90 -2.25 2 -2 2.80 -2.95 6.65 -7.90 1.40 -1.80 3.10 -3.85 3.75 -4.60 0.65 -0.80 1.10 -1.40 0.95 -1.40 -0.15 0 0.35 -0.95 1.15 -2.10 1.85 -2.70 7.50 -13.25 9 -16.90 2.20 -5.20 5.05 -13.25 5.60 -15.75 0.30 -1.35 1.10 -4.30 1.75 -6.50 2.05 -6.75 3.80 -21.05 3.80 -31.70 0.05 -18.25 -3 -32.55 -11.30 -52.80 -5.95 -14.50 -13.55 -25.70 -25.75 -37.75 -15 -14.90 -25.65 -22.25 -45.25 -31.25 -4.80 -2.20 -14 -5.20 -21.50 -7 -15.25 -3.65 -47.70 -3.65 -61.25 0.05 -14.45 3.95 -20.65 6.15 -28.40 10.25 -2.30 1.20 -5.25 2.75 -6.60 3.45 -1.30 0.70 -2.80 1.60 -3.30 2 -0.55 0.40 -1.80 1.20 -2.80 1.70 -1.05 0.55 -1.90 1.15 -1.90 1.35 0 0.20 -0.40 0.50 -0.85 0.65 -0.50 0.20 -1.65 1 -2.60 1.80 -0.90 0.85 -1.80 1.50 -2 1.50 -0.15 0 -1.55 1.10 -3.05 2.50 -1.50 1.35 -2.90 2.45 -3.05 2.50 -0.35 0 -1.40 0.95 -5.70 5 -3.05 2.85 -11.75 11.90 -11.75 12.20 0 0.15 -0.60 0.95 -1.40 1.75 -1.65 1.80 -2 2.25 -3.60 4.65 -0.70 1.05 -1.40 1.90 -1.60 1.90 -0.25 0 -0.40 0.30 -0.40 0.65 0 0.35 -0.45 1.15 -1 1.70 -0.55 0.60 -1.05 1.35 -1.10 1.70 -0.10 0.40 -0.65 1.25 -1.30 1.95 -0.60 0.70 -1.25 1.70 -1.40 2.25 -0.20 0.55 -1 1.95 -1.80 3.15 -0.85 1.20 -1.55 2.45 -1.60 2.75 -0.10 0.35 -1.60 3.65 -3.40 7.35 -2.95 6 -6.55 16.45 -7.10 20.45 -0.10 0.70 -0.30 1.65 -0.45 2.05 -2.20 6.30 -3.10 14.75 -3.10 29.50 0.05 12.75 0.55 17.95 2.75 28.50 2.45 11.55 4.40 16.95 9.75 27 1.75 3.30 1.25 4.85 -2.65 8.25 -3.50 3.05 -5.10 3.45 -7.20 1.75 -1.40 -1.10 -4.70 -7.15 -6.40 -11.75 -2.45 -6.55 -5.10 -14.60 -5.30 -16 -0.15 -0.80 -0.80 -3.60 -1.50 -6.20 -1.50 -5.60 -2.25 -11.55 -1.50 -11.55 0.35 0 0.30 -0.15 -0.05 -0.40 -1.05 -0.65 -1.80 -12.25 -1.50 -23.80 0.25 -9.80 0.35 -11.05 1.15 -11.65 0.50 -0.35 0.60 -0.65 0.30 -0.65 -0.35 0 -0.60 -0.35 -0.60 -0.75 0 -0.40 0.30 -0.75 0.65 -0.75 0.40 0 0.35 -0.20 -0.15 -0.50 -0.65 -0.40 -0.65 -0.55 -0.05 -0.95 0.45 -0.30 0.60 -0.95 0.40 -1.85 -0.25 -1.40 1.95 -13.20 2.60 -13.70 0.15 -0.15 0.35 -1.05 0.35 -2 0.05 -0.95 0.45 -2.65 0.95 -3.75 0.50 -1.10 1 -2.45 1.10 -3 0.10 -0.50 0.40 -1.10 0.65 -1.25 0.25 -0.15 0.40 -0.75 0.40 -1.30 -0.10 -1.30 2.10 -7.20 2.70 -7.20 0.25 0 0.35 -0.20 0.20 -0.45 -0.40 -0.60 5.10 -12.20 5.95 -12.70 0.40 -0.20 0.60 -0.70 0.45 -1.10 -0.20 -0.40 -0.10 -0.75 0.15 -0.75 0.25 0 0.50 -0.30 0.50 -0.65 0 -0.85 1.65 -3.35 2.20 -3.35 0.25 0 0.30 -0.30 0.15 -0.65 -0.10 -0.35 0.25 -1.15 0.80 -1.75 0.55 -0.60 0.85 -1.10 0.65 -1.10 -0.20 0 0.15 -0.35 0.75 -0.80 0.60 -0.40 1 -1 0.85 -1.25 -0.20 -0.25 -0.05 -0.45 0.20 -0.45 0.30 0 0.55 -0.35 0.55 -0.75 0 -0.45 0.35 -0.90 0.75 -1.05 0.85 -0.35 4.55 -5.25 4.35 -5.80 -0.05 -0.25 0.15 -0.40 0.40 -0.40 0.30 0 0.50 -0.35 0.50 -0.75 0 -0.40 0.20 -0.75 0.50 -0.75 0.25 0 1.40 -1.35 2.60 -3 1.15 -1.65 2.30 -3 2.50 -3 0.20 0 0.40 -0.25 0.40 -0.50 0 -0.55 8.30 -9 8.80 -9 0.20 0 1.30 -0.95 2.45 -2.10 2.75 -2.85 6.45 -5.90 8.55 -7.20 0.95 -0.60 2 -1.40 2.35 -1.80 0.65 -0.80 6.60 -4.90 7.10 -4.90 0.15 0 0.85 -0.50 1.55 -1.15 1.20 -1.10 5.50 -3.50 14.70 -8.15 18.60 -9.30 46.05 -15.35 66.50 -14.55 28.45 1.15 50.75 7.50 74.75 21.35 1.10 0.65 3 1.75 4.25 2.45 1.25 0.65 2.35 1.35 2.50 1.50 0.20 0.30 3.85 3.05 7.60 5.80 6.65 4.90 11.10 8.85 17.20 15.30 2.85 3.10 8.75 10.30 10.05 12.35 0.45 0.75 1.85 2.65 3 4.20 1.20 1.55 2.15 2.95 2.15 3.10 0 0.15 1.10 1.90 2.45 3.90 9.15 13.65 16.15 31.50 19.30 49.15 0.90 5.25 1.85 11.75 2.10 14.50 0.50 5.20 0.45 22.40 0 23.75 -0.15 0.40 -0.40 2.60 -0.55 4.90 -0.80 10.35 -6.50 30.85 -11.80 42.45 -1.05 2.25 -1.75 4.20 -1.60 4.35 0.15 0.15 0 0.30 -0.30 0.30 -0.30 0 -0.70 0.50 -0.90 1.15 -0.15 0.60 -0.75 1.70 -1.25 2.45 -0.55 0.70 -0.95 1.65 -0.95 2.10 0 0.45 -0.15 0.80 -0.40 0.80 -0.20 0 -1.15 1.30 -2.05 2.90 -0.95 1.55 -3.45 5.60 -5.65 8.95 -2.15 3.35 -3.90 6.30 -3.90 6.60 0 0.30 -0.20 0.55 -0.50 0.55 -0.25 0 -0.80 0.65 -1.20 1.40 -0.40 0.80 -1.40 2.15 -2.25 3.05 -0.85 0.90 -1.55 1.80 -1.55 2 0 0.70 -12.35 12.95 -15.20 15.10 -9.75 7.30 -19.35 13.50 -24.30 15.70 -0.95 0.45 -1.85 0.95 -2 1.15 -0.50 0.75 -14.65 7.20 -19.45 8.90 -7 2.45 -17.40 5 -28.05 6.80 -10.20 1.70 -21.05 2.15 -32.70 1.35z"/>
  <path d="M132.25 364.70 c-0.55 -0.10 -2.25 -0.45 -3.75 -0.75 -8.70 -1.75 -16 -10.90 -16.05 -20.10 -0.05 -6.40 0.15 -7.15 3.55 -13.35 1.70 -3.10 8.25 -9.55 11.10 -10.90 9.60 -4.50 22.90 -1.45 28.05 6.35 0.75 1.15 1.90 2.90 2.55 3.95 2 3 2.95 8.30 2.65 14.70 -0.15 3.90 -0.45 5.65 -0.90 5.95 -0.40 0.25 -0.55 0.45 -0.30 0.45 0.55 0 -2.15 4.55 -3.90 6.60 -2 2.35 -6.85 5.40 -9.95 6.25 -2.65 0.70 -11.25 1.30 -13.05 0.85z"/>
  <path d="M232.80 313.60 c-0.15 -0.25 -1.05 -0.45 -2 -0.50 -1 -0.05 -3.20 -0.45 -4.90 -0.90 -1.75 -0.45 -5.50 -1.30 -8.40 -1.95 -10.65 -2.30 -20.25 -7.70 -28.85 -16.20 -4.80 -4.80 -7.50 -8.25 -10.15 -13.05 -6.25 -11.25 -8.30 -20.35 -7.90 -35.15 0.10 -5.65 0.35 -8.50 0.75 -8.75 0.35 -0.20 0.55 -0.80 0.45 -1.30 -0.35 -2.55 2.70 -12.80 3.80 -12.80 0.25 0 0.30 -0.20 0.15 -0.50 -0.35 -0.55 1.25 -3.50 1.85 -3.50 0.20 0 0.40 -0.45 0.40 -1 0 -0.55 0.20 -1 0.40 -1 0.50 0 1.85 -2.50 1.70 -3.10 -0.05 -0.25 0.10 -0.40 0.30 -0.40 0.25 0 1.55 -1.65 2.95 -3.60 3.75 -5.35 11.60 -12.60 16.80 -15.60 11.20 -6.35 15.75 -7.90 27.50 -9.35 6.80 -0.80 15.55 0 22.10 2.05 0.85 0.25 2.20 0.60 3.05 0.75 2 0.30 10.15 3.65 11.25 4.60 0.40 0.35 0.95 0.65 1.15 0.65 0.95 0 9.80 6.55 13.30 9.85 7.20 6.80 12.50 14.90 16.75 25.70 2.25 5.70 4 17.55 3.55 24.45 -0.55 9.60 -2.35 16.40 -6.60 25.25 -4.40 9.10 -12.10 18.10 -19.80 23.10 -1.20 0.75 -2.25 1.55 -2.40 1.70 -0.40 0.50 -6.90 3.65 -11 5.40 -3.60 1.45 -17.10 4.55 -20.10 4.55 -0.75 0 -1.40 0.25 -1.40 0.50 0 0.60 -4.35 0.70 -4.70 0.10z"/>
  <path d="M388.85 155.50 c-1.05 -0.30 -3.65 -1.35 -5.75 -2.35 -4.60 -2.25 -10.30 -7.55 -12.20 -11.40 -4.20 -8.35 -5.15 -16.65 -2.60 -23 0.70 -1.80 1.50 -3.25 1.75 -3.25 0.20 0 0.30 -0.35 0.15 -0.75 -0.20 -0.40 -0.05 -0.75 0.30 -0.75 0.30 0 0.45 -0.20 0.30 -0.45 -0.20 -0.25 0.50 -1.25 1.45 -2.25 0.95 -1 1.60 -1.80 1.45 -1.80 -0.55 0 3.55 -3.50 5.80 -4.95 3.70 -2.40 10.05 -4.15 15 -4.20 7.15 0 14.15 2.85 19.55 8 4.55 4.35 7.95 12.80 7.95 19.85 0 6.30 -3.25 15.70 -6.80 19.60 -4.35 4.75 -11.50 7.70 -19.45 8 -2.75 0.10 -5.85 -0.05 -6.90 -0.30z"/>
 </g>
</svg>